<svg width="20" height="21" viewBox="0 0 20 21" fill="none" xmlns="http://www.w3.org/2000/svg">
<path d="M17.9424 17.5577L14.0306 13.6468C15.1644 12.2856 15.7298 10.5398 15.6091 8.77238C15.4884 7.00499 14.691 5.35216 13.3828 4.15772C12.0745 2.96328 10.3561 2.3192 8.5851 2.35944C6.81406 2.39969 5.12671 3.12118 3.87407 4.37383C2.62143 5.62647 1.89994 7.31381 1.85969 9.08486C1.81944 10.8559 2.46353 12.5743 3.65797 13.8825C4.85241 15.1908 6.50524 15.9882 8.27262 16.1089C10.04 16.2295 11.7859 15.6642 13.1471 14.5304L17.058 18.4421C17.1161 18.5002 17.185 18.5462 17.2609 18.5777C17.3367 18.6091 17.4181 18.6253 17.5002 18.6253C17.5823 18.6253 17.6636 18.6091 17.7395 18.5777C17.8154 18.5462 17.8843 18.5002 17.9424 18.4421C18.0004 18.384 18.0465 18.3151 18.0779 18.2392C18.1093 18.1634 18.1255 18.0821 18.1255 17.9999C18.1255 17.9178 18.1093 17.8365 18.0779 17.7606C18.0465 17.6847 18.0004 17.6158 17.9424 17.5577ZM3.12518 9.24993C3.12518 8.13741 3.45508 7.04988 4.07316 6.12485C4.69124 5.19982 5.56975 4.47885 6.59758 4.05311C7.62542 3.62737 8.75642 3.51597 9.84756 3.73302C10.9387 3.95006 11.941 4.48579 12.7277 5.27246C13.5143 6.05913 14.0501 7.06141 14.2671 8.15255C14.4841 9.24369 14.3727 10.3747 13.947 11.4025C13.5213 12.4304 12.8003 13.3089 11.8753 13.9269C10.9502 14.545 9.8627 14.8749 8.75018 14.8749C7.25884 14.8733 5.82906 14.2801 4.77453 13.2256C3.72 12.171 3.12683 10.7413 3.12518 9.24993Z" fill="#7A7D84"/>
</svg>
